<?xml version="1.0" standalone="no"?>
<!DOCTYPE svg PUBLIC "-//W3C//DTD SVG 20010904//EN"
 "http://www.w3.org/TR/2001/REC-SVG-20010904/DTD/svg10.dtd">
<svg version="1.0" xmlns="http://www.w3.org/2000/svg"
 width="69.000000pt" height="80.000000pt" viewBox="0 0 69.000000 80.000000"
 preserveAspectRatio="xMidYMid meet">

<g transform="translate(0.000000,80.000000) scale(0.100000,-0.100000)"
fill="#000000" stroke="none">
<path d="M220 793 c-40 -13 -61 -29 -76 -61 -27 -57 -9 -95 85 -176 132 -114
132 -142 -2 -267 -86 -82 -92 -89 -92 -127 0 -72 63 -125 128 -108 13 3 101
73 195 156 186 163 205 190 180 249 -12 27 -286 281 -342 316 -28 17 -57 24
-76 18z"/>
<path d="M96 468 c-34 -48 -7 -108 47 -108 38 0 50 7 66 38 23 44 -10 92 -64
92 -24 0 -39 -7 -49 -22z"/>
</g>
</svg>
